<svg width="57" height="63" viewBox="0 0 57 63" fill="none" xmlns="http://www.w3.org/2000/svg">
<path d="M54.1647 42.2125V20.9643C55.7813 20.6214 56.9945 19.2153 56.9945 17.5332C56.9945 15.594 55.3833 14.0217 53.3962 14.0217C52.323 14.0217 51.3568 14.4824 50.6981 15.211L31.9378 4.64176C32.0613 4.28821 32.1299 3.90787 32.1299 3.51146C32.1299 1.57225 30.5188 0 28.5316 0C26.5443 0 24.9332 1.57225 24.9332 3.51146C24.9332 3.90787 25.0018 4.28553 25.1254 4.64176L6.31839 15.2378C5.65965 14.4931 4.68527 14.0217 3.59835 14.0217C1.61116 14.0217 0 15.594 0 17.5332C0 19.2394 1.24611 20.659 2.89845 20.9777V42.1964C1.24611 42.5152 0 43.9348 0 45.6409C0 47.5801 1.61116 49.1523 3.59835 49.1523C4.67155 49.1523 5.63495 48.6917 6.29369 47.9658L25.0677 58.543C24.9826 58.843 24.9359 59.1618 24.9359 59.4885C24.9359 61.4278 26.5471 63 28.5343 63C30.5215 63 32.1327 61.4278 32.1327 59.4885C32.1327 59.1618 32.086 58.843 32.0009 58.543L50.7283 47.9926C51.387 48.7051 52.3394 49.155 53.4017 49.155C55.3888 49.155 57 47.5828 57 45.6436C57 43.9616 55.7896 42.558 54.1701 42.2125H54.1647ZM50.7063 43.3107L41.9121 38.3475L52.301 20.8812C52.452 20.9268 52.6057 20.9643 52.7649 20.9911V42.1857C51.9524 42.325 51.2333 42.7321 50.7063 43.3107ZM27.3678 56.1646L17.086 38.835L27.8289 32.787V56.0467C27.6697 56.0762 27.516 56.1191 27.3678 56.1673V56.1646ZM4.29552 42.1991V20.9803C4.46569 20.9483 4.63312 20.9026 4.79506 20.8464L15.1702 38.3368L6.29918 43.3321C5.78591 42.7615 5.086 42.3545 4.29277 42.2018L4.29552 42.1991ZM27.8289 18.2323V30.4005L7.00731 18.6474C7.05398 18.5081 7.09241 18.3662 7.1226 18.2215L27.8289 18.2323ZM6 20.1474C6.11253 20.051 6.21683 19.9438 6.3129 19.834L27.1454 31.5924L16.3834 37.6511L5.99726 20.1447L6 20.1474ZM49.8719 18.243C49.9049 18.4063 49.9515 18.5644 50.0091 18.7197L29.2314 30.4193V18.2323L49.8719 18.243ZM29.2314 56.044V32.7682L39.9963 38.8456L29.6954 56.1673C29.5443 56.1164 29.3906 56.0762 29.2314 56.044ZM29.9478 31.5924L50.7283 19.8902C50.8353 20.0054 50.9534 20.1152 51.0742 20.217L40.699 37.6618L29.9451 31.5924H29.9478ZM49.9927 16.3922C49.9378 16.5475 49.8939 16.7082 49.861 16.8743L29.2288 16.8636V6.95596C30.0219 6.80329 30.7219 6.39615 31.2324 5.82564L49.9899 16.3949L49.9927 16.3922ZM25.8252 5.82296C26.3386 6.39348 27.0384 6.80061 27.8317 6.95328V16.8609L7.12809 16.8501C7.09789 16.7055 7.05947 16.5635 7.01281 16.4243L25.828 5.82296H25.8252ZM6.99908 46.7819C7.12534 46.423 7.19396 46.04 7.19396 45.6382C7.19396 45.2364 7.12534 44.8641 7.00183 44.5079L15.8729 39.5126L26.1546 56.8449C25.9872 56.9869 25.8362 57.1449 25.699 57.3163L6.99635 46.7793L6.99908 46.7819ZM31.3614 57.319C31.2241 57.1502 31.0732 56.9922 30.9086 56.8503L41.2123 39.526L50.0009 44.4865C49.8719 44.8481 49.8005 45.2364 49.8005 45.6382C49.8005 46.04 49.8747 46.4471 50.0064 46.814L31.3614 57.319Z" fill="#F0F1F4"/>
</svg>
